<?xml version="1.0" encoding="utf-8"?>
<!-- Generator: Adobe Illustrator 18.1.1, SVG Export Plug-In . SVG Version: 6.00 Build 0)  -->
<svg version="1.1" id="Layer_1" xmlns="http://www.w3.org/2000/svg" xmlns:xlink="http://www.w3.org/1999/xlink" x="0px" y="0px"
	 width="67.5px" height="83.2px" viewBox="0 0 67.5 83.2" enable-background="new 0 0 67.5 83.2" xml:space="preserve">
<g>
	<path fill="#DCEAE8" d="M15,34.3"/>
	<path fill="#DCEAE8" d="M17.8,35.5l18.2,15l-15.3,4.3C9.5,58.1-0.2,50.7,0,38.1c0-0.6,0.1-1.3,0.1-1.9C1,24,10.6,12.4,21.5,9.3
		l11.4-3.2v16.7l-12.1,3.4C16.8,27.3,15,33.3,17.8,35.5z"/>
	<path fill="#DCEAE8" d="M67.5,13L67.5,13L43,19.9V3.2l9.5-2.7C60.8-1.8,67.5,3.7,67.5,13z"/>
	<path fill="#DCEAE8" d="M49.6,47.7l-18.2-15l15.3-4.3c11.4-3.2,21.1,4.1,20.8,16.8c0,0.6-0.1,1.3-0.1,1.9c-1,12.3-10.6,24-21.5,27
		l-11.4,3.2V60.5l12.1-3.4C50.6,55.9,52.4,49.9,49.6,47.7z"/>
	<path fill="#DCEAE8" d="M-0.1,70.2L-0.1,70.2l24.5-6.9V80L15,82.7C6.7,85-0.1,79.5-0.1,70.2z"/>
</g>
</svg>
