<?xml version="1.0" encoding="utf-8"?>
<!-- Generator: Adobe Illustrator 18.1.1, SVG Export Plug-In . SVG Version: 6.00 Build 0)  -->
<svg version="1.1" id="Layer_1" xmlns="http://www.w3.org/2000/svg" xmlns:xlink="http://www.w3.org/1999/xlink" x="0px" y="0px"
	 width="512px" height="83.2px" viewBox="0 214.8 512 83.2" enable-background="new 0 214.8 512 83.2" xml:space="preserve">
<g>
	<linearGradient id="SVGID_1_" gradientUnits="userSpaceOnUse" x1="30.8453" y1="249.0324" x2="30.8453" y2="249.0324">
		<stop  offset="0" style="stop-color:#2E654D"/>
		<stop  offset="1" style="stop-color:#93B423"/>
	</linearGradient>
	<path fill="url(#SVGID_1_)" d="M30.8,249"/>
	<linearGradient id="SVGID_2_" gradientUnits="userSpaceOnUse" x1="20.829" y1="266.1853" x2="57.4301" y2="229.5842">
		<stop  offset="0" style="stop-color:#2E654D"/>
		<stop  offset="1" style="stop-color:#93B423"/>
	</linearGradient>
	<path fill="url(#SVGID_2_)" d="M33.7,250.3l18.2,15l-15.3,4.3c-11.4,3.2-21.1-4.1-20.8-16.8c0-0.6,0.1-1.3,0.1-1.9
		c0.9-12.2,10.5-23.9,21.4-26.9l11.4-3.2v16.7L36.6,241C32.7,242.1,30.9,248,33.7,250.3z"/>
	<linearGradient id="SVGID_3_" gradientUnits="userSpaceOnUse" x1="59.107" y1="234.8624" x2="77.9195" y2="216.0499">
		<stop  offset="0" style="stop-color:#2E654D"/>
		<stop  offset="1" style="stop-color:#93B423"/>
	</linearGradient>
	<path fill="url(#SVGID_3_)" d="M83.4,227.7L83.4,227.7l-24.5,6.9V218l9.5-2.7C76.6,212.9,83.4,218.5,83.4,227.7z"/>
	<linearGradient id="SVGID_4_" gradientUnits="userSpaceOnUse" x1="41.7601" y1="283.1986" x2="78.4395" y2="246.5193">
		<stop  offset="0" style="stop-color:#2E654D"/>
		<stop  offset="1" style="stop-color:#93B423"/>
	</linearGradient>
	<path fill="url(#SVGID_4_)" d="M65.4,262.4l-18.2-15l15.3-4.3c11.4-3.2,21.1,4.1,20.8,16.8c0,0.6-0.1,1.3-0.1,1.9
		c-1,12.3-10.6,24-21.5,27l-11.4,3.2v-16.7l12.1-3.4C66.5,270.6,68.3,264.7,65.4,262.4z"/>
	<linearGradient id="SVGID_5_" gradientUnits="userSpaceOnUse" x1="21.2707" y1="296.6546" x2="40.0832" y2="277.8422">
		<stop  offset="0" style="stop-color:#2E654D"/>
		<stop  offset="1" style="stop-color:#93B423"/>
	</linearGradient>
	<path fill="url(#SVGID_5_)" d="M15.8,285L15.8,285l24.5-6.9v16.7l-9.5,2.7C22.5,299.8,15.8,294.2,15.8,285z"/>
</g>
<g>
	<linearGradient id="SVGID_6_" gradientUnits="userSpaceOnUse" x1="94.9206" y1="276.5475" x2="132.7335" y2="238.7346">
		<stop  offset="0" style="stop-color:#2E654D"/>
		<stop  offset="1" style="stop-color:#93B423"/>
	</linearGradient>
	<path fill="url(#SVGID_6_)" d="M131.5,266.3c0,1.6-0.2,3.1-0.5,4.4c-0.3,1.3-0.7,2.4-1.3,3.4c-0.5,1-1.1,1.8-1.8,2.5
		c-0.7,0.7-1.4,1.3-2.1,1.7s-1.5,0.8-2.2,0.9c-0.8,0.2-1.5,0.3-2.1,0.3H97.9v-8.2h23.6c1.2,0,2.1-0.5,2.7-1.4
		c0.6-0.9,0.9-2.2,0.9-3.7c0-0.8-0.1-1.5-0.2-2.1c-0.2-0.6-0.4-1.2-0.7-1.6c-0.3-0.5-0.7-0.8-1.2-1.1c-0.5-0.2-0.9-0.4-1.6-0.4
		h-14.1c-1,0-2-0.2-3.2-0.7c-1.2-0.5-2.2-1.3-3.2-2.3c-1-1-1.8-2.4-2.4-4.1s-0.9-3.8-0.9-6.3c0-2.4,0.3-4.5,0.9-6.2
		c0.6-1.7,1.5-3.1,2.4-4.1c1-1.1,2-1.8,3.2-2.3c1.2-0.5,2.2-0.7,3.2-0.7h20.8v8.2h-20.8c-1.2,0-2,0.5-2.7,1.4
		c-0.6,0.9-0.9,2.2-0.9,3.8s0.3,2.8,0.9,3.8c0.6,0.9,1.6,1.4,2.7,1.4h14.1h0.1c0.6,0,1.3,0.2,2.1,0.4s1.5,0.5,2.2,1
		c0.7,0.5,1.4,1,2.1,1.7c0.6,0.7,1.3,1.6,1.7,2.5c0.5,0.9,0.9,2.1,1.3,3.4C131.4,263.2,131.5,264.7,131.5,266.3z"/>
	<linearGradient id="SVGID_7_" gradientUnits="userSpaceOnUse" x1="134.0281" y1="266.4122" x2="166.4391" y2="234.0012">
		<stop  offset="0" style="stop-color:#2E654D"/>
		<stop  offset="1" style="stop-color:#93B423"/>
	</linearGradient>
	<path fill="url(#SVGID_7_)" d="M166.8,242.6h-13.5v37h-6.1v-37h-13.5v-8.2h33.2V242.6z"/>
	<linearGradient id="SVGID_8_" gradientUnits="userSpaceOnUse" x1="169.4329" y1="279.4268" x2="207.8483" y2="241.0114">
		<stop  offset="0" style="stop-color:#2E654D"/>
		<stop  offset="1" style="stop-color:#93B423"/>
	</linearGradient>
	<path fill="url(#SVGID_8_)" d="M203.3,279.6h-6.1v-11.1h-21.5v11.1h-6.1v-22.6c0-3.3,0.4-6.3,1.3-9.1s2-5.2,3.5-7.1
		s3.3-3.5,5.3-4.7c2-1.1,4.3-1.6,6.7-1.6h13.8c0.4,0,0.9,0.1,1.2,0.3c0.4,0.2,0.7,0.5,1,0.9c0.3,0.4,0.5,0.8,0.6,1.3
		c0.2,0.5,0.2,1,0.2,1.6L203.3,279.6L203.3,279.6z M175.7,260.3h21.5v-17.7h-10.8c-0.2,0-0.5,0-1.2,0.1c-0.6,0.1-1.3,0.2-2.1,0.5
		c-0.8,0.3-1.6,0.8-2.5,1.3c-0.9,0.6-1.7,1.5-2.4,2.5c-0.7,1.1-1.3,2.4-1.8,4c-0.5,1.6-0.7,3.5-0.7,5.9V260.3z"/>
	<linearGradient id="SVGID_9_" gradientUnits="userSpaceOnUse" x1="208.4862" y1="277.5358" x2="245.5319" y2="240.4901">
		<stop  offset="0" style="stop-color:#2E654D"/>
		<stop  offset="1" style="stop-color:#93B423"/>
	</linearGradient>
	<path fill="url(#SVGID_9_)" d="M244.3,249.6c0,1.9-0.2,3.5-0.5,5c-0.3,1.5-0.8,2.7-1.4,3.9c-0.6,1.1-1.3,2.1-2,2.9
		c-0.8,0.8-1.6,1.5-2.4,2c-0.9,0.5-1.7,0.9-2.6,1.1c-0.9,0.2-1.6,0.3-2.4,0.3l12.8,14.8h-9.5l-12.8-14.8H219v-8.2h13.9
		c0.8-0.1,1.5-0.3,2.1-0.6c0.6-0.3,1.2-0.8,1.6-1.4c0.5-0.6,0.8-1.3,1.1-2.1c0.2-0.9,0.4-1.8,0.4-2.8v-5.2c0-0.5-0.1-0.8-0.2-1
		s-0.2-0.4-0.3-0.5c-0.2-0.1-0.3-0.2-0.4-0.2c-0.2,0-0.3,0-0.4,0h-20.2v37h-6.1v-41c0-0.5,0.1-1.1,0.2-1.6s0.4-0.9,0.6-1.3
		c0.3-0.4,0.6-0.7,0.9-0.9c0.4-0.2,0.8-0.3,1.3-0.3h23.3c1.3,0,2.5,0.3,3.4,1c0.9,0.6,1.7,1.5,2.3,2.5c0.6,1,1,2,1.3,3.2
		c0.2,1.2,0.4,2.3,0.4,3.2L244.3,249.6L244.3,249.6z"/>
	<linearGradient id="SVGID_10_" gradientUnits="userSpaceOnUse" x1="247.8581" y1="266.4122" x2="280.2691" y2="234.0012">
		<stop  offset="0" style="stop-color:#2E654D"/>
		<stop  offset="1" style="stop-color:#93B423"/>
	</linearGradient>
	<path fill="url(#SVGID_10_)" d="M280.7,242.6h-13.5v37H261v-37h-13.5v-8.2h33.2L280.7,242.6L280.7,242.6z"/>
	<linearGradient id="SVGID_11_" gradientUnits="userSpaceOnUse" x1="300.2067" y1="274.2251" x2="341.7823" y2="232.6495">
		<stop  offset="0" style="stop-color:#2E654D"/>
		<stop  offset="1" style="stop-color:#93B423"/>
	</linearGradient>
	<path fill="url(#SVGID_11_)" d="M343.5,234.4l-5.6,42.4c-0.2,0.9-0.4,1.6-0.9,2.2c-0.5,0.6-0.9,1-1.6,1.2c-0.6,0.2-1.3,0.1-1.8-0.3
		c-0.5-0.3-1-0.9-1.3-1.6L321,253.6l-11.3,24.7c-0.2,0.6-0.6,1.1-1.1,1.4c-0.5,0.3-0.9,0.5-1.5,0.5c-0.7,0-1.4-0.3-2-0.9
		s-0.9-1.5-1-2.4l-5.7-42.4h6.2l4.1,29.8l9.6-20.6c0.2-0.6,0.6-1.1,1.1-1.4c0.5-0.3,0.9-0.5,1.5-0.5s1,0.2,1.5,0.5
		c0.5,0.3,0.9,0.8,1.1,1.4l9.6,20.6l4.1-29.8H343.5z"/>
	<linearGradient id="SVGID_12_" gradientUnits="userSpaceOnUse" x1="347.6152" y1="279.4268" x2="386.0305" y2="241.0114">
		<stop  offset="0" style="stop-color:#2E654D"/>
		<stop  offset="1" style="stop-color:#93B423"/>
	</linearGradient>
	<path fill="url(#SVGID_12_)" d="M381.5,279.6h-6.1v-11.1h-21.5v11.1h-6.1v-22.6c0-3.3,0.4-6.3,1.3-9.1c0.9-2.7,2-5.2,3.5-7.1
		s3.3-3.5,5.3-4.7c2-1.1,4.3-1.6,6.7-1.6h13.8c0.4,0,0.9,0.1,1.2,0.3c0.4,0.2,0.7,0.5,1,0.9c0.3,0.4,0.5,0.8,0.6,1.3
		c0.2,0.5,0.2,1,0.2,1.6L381.5,279.6L381.5,279.6z M353.9,260.3h21.5v-17.7h-10.8c-0.2,0-0.5,0-1.2,0.1c-0.6,0.1-1.3,0.2-2.1,0.5
		c-0.8,0.3-1.6,0.8-2.5,1.3c-0.9,0.6-1.7,1.5-2.4,2.5c-0.7,1-1.3,2.4-1.8,4c-0.5,1.6-0.7,3.5-0.7,5.9V260.3z"/>
	<linearGradient id="SVGID_13_" gradientUnits="userSpaceOnUse" x1="387.2979" y1="264.7975" x2="420.1101" y2="231.9853">
		<stop  offset="0" style="stop-color:#2E654D"/>
		<stop  offset="1" style="stop-color:#93B423"/>
	</linearGradient>
	<path fill="url(#SVGID_13_)" d="M422.4,234.4l-16,43.5c-0.2,0.7-0.6,1.2-1.1,1.6c-0.5,0.4-1,0.6-1.6,0.6c-0.5,0-1.1-0.2-1.6-0.6
		c-0.5-0.4-0.9-0.9-1.2-1.6l-16-43.6h6.9l11.9,32.6l11.9-32.6L422.4,234.4L422.4,234.4z"/>
	<linearGradient id="SVGID_14_" gradientUnits="userSpaceOnUse" x1="425.4748" y1="273.6872" x2="460.6708" y2="238.4911">
		<stop  offset="0" style="stop-color:#2E654D"/>
		<stop  offset="1" style="stop-color:#93B423"/>
	</linearGradient>
	<path fill="url(#SVGID_14_)" d="M456.5,279.6h-22.1c-0.9,0-1.8-0.2-2.8-0.6c-1-0.4-2-1-2.8-2s-1.6-2.1-2.1-3.5
		c-0.5-1.5-0.9-3.3-0.9-5.4v-29.5c0-0.5,0.1-1.1,0.2-1.6c0.2-0.5,0.4-0.9,0.6-1.3c0.3-0.4,0.6-0.7,1-0.9c0.4-0.2,0.8-0.3,1.3-0.3
		h27.6v8.2H432v25.5c0,1.1,0.2,1.9,0.6,2.4c0.4,0.5,1,0.9,1.9,0.9h22.1L456.5,279.6L456.5,279.6z M453.7,261.1h-19.3v-8.2h19.3
		V261.1z"/>
	<linearGradient id="SVGID_15_" gradientUnits="userSpaceOnUse" x1="458.1745" y1="276.5475" x2="496.0265" y2="238.6955">
		<stop  offset="0" style="stop-color:#2E654D"/>
		<stop  offset="1" style="stop-color:#93B423"/>
	</linearGradient>
	<path fill="url(#SVGID_15_)" d="M494.8,266.3c0,1.6-0.2,3.1-0.5,4.4c-0.3,1.3-0.7,2.4-1.3,3.4c-0.5,1-1.1,1.8-1.8,2.5
		c-0.7,0.7-1.4,1.3-2.1,1.7c-0.7,0.5-1.5,0.8-2.2,0.9c-0.8,0.2-1.5,0.3-2.1,0.3h-23.6v-8.2h23.6c1.2,0,2.1-0.5,2.7-1.4
		s0.9-2.2,0.9-3.7c0-0.8-0.1-1.5-0.2-2.1c-0.2-0.6-0.4-1.2-0.7-1.6s-0.7-0.8-1.2-1.1c-0.5-0.2-1-0.4-1.6-0.4h-14.1
		c-1,0-2-0.2-3.2-0.7c-1.2-0.5-2.2-1.3-3.2-2.3c-1-1-1.8-2.4-2.4-4.1c-0.6-1.7-0.9-3.8-0.9-6.3c0-2.4,0.3-4.5,0.9-6.2
		c0.6-1.7,1.5-3.1,2.4-4.1c1-1.1,2-1.8,3.2-2.3c1.2-0.5,2.2-0.7,3.2-0.7h20.9v8.2h-20.8c-1.2,0-2,0.5-2.7,1.4c-0.7,0.9-1,2.2-1,3.8
		s0.3,2.8,1,3.8s1.6,1.4,2.7,1.4h14.1h0.1c0.6,0,1.3,0.2,2.1,0.4c0.7,0.2,1.5,0.5,2.2,1c0.7,0.5,1.4,1,2.1,1.7
		c0.6,0.7,1.3,1.6,1.7,2.5c0.5,1,0.9,2.1,1.2,3.4C494.6,263.2,494.8,264.7,494.8,266.3z"/>
</g>
</svg>
