<?xml version="1.0" encoding="utf-8"?>
<!-- Generator: Adobe Illustrator 18.1.1, SVG Export Plug-In . SVG Version: 6.00 Build 0)  -->
<svg version="1.1" id="Layer_1" xmlns="http://www.w3.org/2000/svg" xmlns:xlink="http://www.w3.org/1999/xlink" x="0px" y="0px"
	 viewBox="0 0 654 218" enable-background="new 0 0 654 218" xml:space="preserve">
<g>
	<path fill="#DDEAE8" d="M39.4,100.1"/>
	<path fill="#DDEAE8" d="M43.1,101.7l23.3,19.2l-19.5,5.5c-14.5,4.1-26.9-5.3-26.6-21.4c0-0.8,0.1-1.6,0.1-2.4
		C21.6,87,33.8,72.1,47.7,68.2l14.5-4.1v21.3l-15.4,4.4C41.8,91.2,39.5,98.8,43.1,101.7z"/>
	<path fill="#DDEAE8" d="M106.5,72.9L106.5,72.9l-31.3,8.8V60.4L87.3,57C97.9,54,106.5,61.1,106.5,72.9z"/>
	<path fill="#DDEAE8" d="M83.6,117.2L60.4,98l19.5-5.5c14.5-4.1,26.9,5.3,26.6,21.4c0,0.8-0.1,1.6-0.1,2.4
		c-1.3,15.7-13.5,30.6-27.4,34.5l-14.5,4.1v-21.3l15.4-4.4C84.9,127.7,87.2,120.1,83.6,117.2z"/>
	<path fill="#DDEAE8" d="M20.2,146L20.2,146l31.3-8.8v21.3l-12.1,3.4C28.8,164.9,20.2,157.8,20.2,146z"/>
</g>
<g>
	<path fill="#DDEAE8" d="M168,122.1c0,2.1-0.2,3.9-0.6,5.6c-0.4,1.6-0.9,3.1-1.6,4.4c-0.6,1.3-1.4,2.3-2.3,3.2
		c-0.9,0.9-1.8,1.6-2.7,2.2c-0.9,0.6-1.9,1-2.8,1.2c-1,0.3-1.9,0.4-2.7,0.4h-30.2v-10.5h30.2c1.5,0,2.7-0.6,3.5-1.8
		c0.8-1.2,1.2-2.8,1.2-4.7c0-1-0.1-1.9-0.3-2.7s-0.5-1.5-0.9-2.1c-0.4-0.6-0.9-1-1.5-1.4c-0.6-0.3-1.2-0.5-2-0.5h-18
		c-1.3,0-2.6-0.3-4.1-0.9c-1.5-0.6-2.8-1.6-4.1-2.9c-1.3-1.3-2.3-3.1-3.1-5.3s-1.2-4.8-1.2-8c0-3.1,0.4-5.8,1.2-7.9
		c0.8-2.2,1.9-3.9,3.1-5.3c1.3-1.4,2.6-2.3,4.1-2.9c1.5-0.6,2.8-0.9,4.1-0.9h26.6v10.5h-26.6c-1.5,0-2.6,0.6-3.5,1.8
		c-0.8,1.2-1.2,2.8-1.2,4.8c0,2,0.4,3.6,1.2,4.8c0.8,1.2,2,1.8,3.5,1.8h18h0.1c0.8,0,1.7,0.2,2.7,0.5s1.9,0.7,2.8,1.3
		c0.9,0.6,1.8,1.3,2.7,2.2c0.8,0.9,1.6,2,2.2,3.2s1.2,2.7,1.6,4.3C167.8,118.2,168,120.1,168,122.1z"/>
	<path fill="#DDEAE8" d="M213.1,91.9h-17.3v47.2H188V91.9h-17.3V81.4h42.4V91.9z"/>
	<path fill="#DDEAE8" d="M259.7,139.1h-7.8v-14.2h-27.5v14.2h-7.8v-28.9c0-4.2,0.5-8.1,1.6-11.6c1.1-3.5,2.6-6.6,4.5-9.1
		c1.9-2.5,4.2-4.5,6.8-6c2.6-1.4,5.5-2.1,8.6-2.1h17.6c0.5,0,1.1,0.1,1.5,0.4c0.5,0.3,0.9,0.6,1.3,1.1s0.6,1,0.8,1.7
		c0.2,0.6,0.3,1.3,0.3,2.1V139.1z M224.4,114.5h27.5V91.9h-13.8c-0.2,0-0.7,0-1.5,0.1c-0.8,0.1-1.7,0.3-2.7,0.7
		c-1,0.4-2.1,1-3.2,1.7c-1.1,0.8-2.2,1.9-3.1,3.2c-0.9,1.4-1.7,3.1-2.3,5.1s-0.9,4.5-0.9,7.5V114.5z"/>
	<path fill="#DDEAE8" d="M312,100.8c0,2.4-0.2,4.5-0.7,6.4c-0.4,1.9-1,3.5-1.8,5c-0.8,1.4-1.6,2.7-2.6,3.7c-1,1-2,1.9-3.1,2.5
		s-2.2,1.1-3.3,1.4c-1.1,0.3-2.1,0.4-3.1,0.4l16.3,18.9h-12.1l-16.3-18.9h-5.6v-10.5h17.7c1-0.1,1.9-0.4,2.7-0.8
		c0.8-0.4,1.5-1,2.1-1.8c0.6-0.8,1-1.7,1.4-2.7c0.3-1.1,0.5-2.3,0.5-3.6v-6.6c0-0.6-0.1-1-0.2-1.3c-0.1-0.3-0.3-0.5-0.4-0.7
		c-0.2-0.1-0.4-0.2-0.5-0.3c-0.2,0-0.4,0-0.5,0h-25.8v47.2h-7.8V86.7c0-0.7,0.1-1.4,0.3-2.1s0.5-1.2,0.8-1.7
		c0.4-0.5,0.8-0.9,1.2-1.1c0.5-0.3,1-0.4,1.6-0.4h29.7c1.7,0,3.2,0.4,4.4,1.3c1.2,0.8,2.2,1.9,2.9,3.2c0.8,1.3,1.3,2.6,1.6,4.1
		c0.3,1.5,0.5,2.9,0.5,4.1V100.8z"/>
	<path fill="#DDEAE8" d="M358.5,91.9h-17.3v47.2h-7.8V91.9h-17.3V81.4h42.4V91.9z"/>
	<path fill="#DDEAE8" d="M438.8,81.4l-7.2,54.1c-0.2,1.1-0.5,2-1.1,2.8c-0.6,0.8-1.2,1.3-2,1.5c-0.8,0.2-1.6,0.1-2.3-0.4
		c-0.7-0.4-1.3-1.1-1.7-2L410,105.9l-14.4,31.5c-0.3,0.8-0.8,1.4-1.4,1.8c-0.6,0.4-1.2,0.6-1.9,0.6c-0.9,0-1.8-0.4-2.5-1.2
		c-0.7-0.8-1.2-1.9-1.3-3.1l-7.3-54.1h7.9l5.2,38.1l12.3-26.3c0.3-0.8,0.8-1.4,1.4-1.8c0.6-0.4,1.2-0.6,1.9-0.6s1.3,0.2,1.9,0.6
		c0.6,0.4,1.1,1,1.4,1.8l12.3,26.3l5.2-38.1H438.8z"/>
	<path fill="#DDEAE8" d="M487.3,139.1h-7.8v-14.2H452v14.2h-7.8v-28.9c0-4.2,0.5-8.1,1.6-11.6s2.6-6.6,4.5-9.1
		c1.9-2.5,4.2-4.5,6.8-6c2.6-1.4,5.5-2.1,8.6-2.1h17.6c0.5,0,1.1,0.1,1.5,0.4c0.5,0.3,0.9,0.6,1.3,1.1s0.6,1,0.8,1.7
		c0.2,0.6,0.3,1.3,0.3,2.1V139.1z M452,114.5h27.5V91.9h-13.8c-0.2,0-0.7,0-1.5,0.1c-0.8,0.1-1.7,0.3-2.7,0.7c-1,0.4-2.1,1-3.2,1.7
		c-1.1,0.8-2.2,1.9-3.1,3.2s-1.7,3.1-2.3,5.1s-0.9,4.5-0.9,7.5V114.5z"/>
	<path fill="#DDEAE8" d="M539.6,81.4L519.2,137c-0.3,0.9-0.8,1.5-1.4,2.1c-0.6,0.5-1.3,0.8-2.1,0.8c-0.7,0-1.4-0.3-2.1-0.8
		c-0.6-0.5-1.1-1.2-1.5-2.1l-20.4-55.7h8.8l15.2,41.6l15.2-41.6H539.6z"/>
	<path fill="#DDEAE8" d="M583.1,139.1h-28.2c-1.1,0-2.3-0.3-3.6-0.8c-1.3-0.5-2.5-1.3-3.6-2.5s-2-2.7-2.7-4.5
		c-0.7-1.9-1.1-4.2-1.1-6.9V86.7c0-0.7,0.1-1.4,0.3-2.1c0.2-0.6,0.5-1.2,0.8-1.7c0.4-0.5,0.8-0.9,1.3-1.1c0.5-0.3,1-0.4,1.6-0.4
		h35.3v10.5h-31.4v32.6c0,1.4,0.3,2.4,0.8,3.1c0.5,0.7,1.3,1.1,2.4,1.1h28.2V139.1z M579.5,115.5h-24.7V105h24.7V115.5z"/>
	<path fill="#DDEAE8" d="M632,122.1c0,2.1-0.2,3.9-0.6,5.6c-0.4,1.6-0.9,3.1-1.6,4.4s-1.4,2.3-2.3,3.2c-0.9,0.9-1.8,1.6-2.7,2.2
		c-0.9,0.6-1.9,1-2.8,1.2c-1,0.3-1.9,0.4-2.7,0.4h-30.2v-10.5h30.2c1.5,0,2.7-0.6,3.5-1.8c0.8-1.2,1.2-2.8,1.2-4.7
		c0-1-0.1-1.9-0.3-2.7s-0.5-1.5-0.9-2.1c-0.4-0.6-0.9-1-1.5-1.4c-0.6-0.3-1.3-0.5-2-0.5h-18c-1.3,0-2.6-0.3-4.1-0.9
		c-1.5-0.6-2.8-1.6-4.1-2.9c-1.3-1.3-2.3-3.1-3.1-5.3s-1.2-4.8-1.2-8c0-3.1,0.4-5.8,1.2-7.9c0.8-2.2,1.9-3.9,3.1-5.3
		c1.3-1.4,2.6-2.3,4.1-2.9c1.5-0.6,2.8-0.9,4.1-0.9H628v10.5h-26.6c-1.5,0-2.6,0.6-3.5,1.8s-1.3,2.8-1.3,4.8c0,2,0.4,3.6,1.3,4.8
		s2,1.8,3.5,1.8h18h0.1c0.8,0,1.7,0.2,2.7,0.5c0.9,0.3,1.9,0.7,2.8,1.3c0.9,0.6,1.8,1.3,2.7,2.2c0.8,0.9,1.6,2,2.2,3.2
		c0.7,1.3,1.2,2.7,1.5,4.3C631.8,118.2,632,120.1,632,122.1z"/>
</g>
</svg>
